# xmcd
#
# Track frame offsets: 
#        150
#        26677
#        52418
#        80991
#        106719
#        132047
#        163090
#        189424
#        228894
#
# Disc length: 3241 seconds
#
# Revision: 1
# Processed by: cddbd v1.5.2PL0 Copyright (c) Steve Scherf et al.
# Submitted via: ExactAudioCopy v0.99pb5
#
DISCID=730ca709
DTITLE=Troy Andrews Quintet - The End of the Beginning
DYEAR=2005
DGENRE=Jazz
TTITLE0=Twisted
TTITLE1=Softly, As In A Morning Sunrise
TTITLE2=On the Sunnyside of the Street
TTITLE3=Summertime
TTITLE4=Skylark
TTITLE5=Congo Square
TTITLE6=Two Trumpet Blues
TTITLE7=Byrdie
TTITLE8=Reet Petite
EXTD=YEAR: 2005
EXTT0=
EXTT1=
EXTT2=
EXTT3=
EXTT4=
EXTT5=
EXTT6=
EXTT7=
EXTT8=
PLAYORDER=
